<svg xmlns="http://www.w3.org/2000/svg" width="328.813" height="56.485" viewBox="0 0 328.813 56.485">
  <g id="google-sheets-full-logo-1" transform="translate(-5 -30)">
    <path id="Path_207" data-name="Path 207" d="M45.563,83.231a3.2,3.2,0,0,1-3.2,3.2H8.2a3.2,3.2,0,0,1-3.2-3.2v-50a3.2,3.2,0,0,1,3.2-3.2H30.125L45.563,45.777Z" transform="translate(0 0.053)" fill="#23a566"/>
    <path id="Path_208" data-name="Path 208" d="M15.516,36.084,29.255,49.215V36.4H17.085a3.074,3.074,0,0,1-1.52-.383Z" transform="translate(16.308 9.336)" fill="#1c8f5a"/>
    <path id="Path_209" data-name="Path 209" d="M30.267,45.8h-12.2a3.2,3.2,0,0,1-3.2-3.2V30Z" transform="translate(15.295 0)" fill="#8ed1b1"/>
    <path id="Path_210" data-name="Path 210" d="M29.906,59.195H8.8v-18.3H29.906ZM20.664,43.533v3.2h6.647v-3.2Zm0,5.221v3.061h6.647V48.739Zm0,5.012V56.6h6.647V53.752Zm-2.609,2.819V53.752H11.41v2.834Zm0-4.8V48.739H11.41V51.8Zm0-5.012V43.533H11.41v3.2Z" transform="translate(5.89 16.893)" fill="#fff" fill-rule="evenodd"/>
    <path id="Path_211" data-name="Path 211" d="M82.791,55.384a6.543,6.543,0,1,0-6.538,6.76A6.537,6.537,0,0,0,82.791,55.384Zm5.091,0c0,6.423-5.221,11.157-11.632,11.157S64.621,61.807,64.621,55.384c0-6.469,5.221-11.157,11.632-11.157S87.882,48.915,87.882,55.384Zm20,0a6.541,6.541,0,1,0-6.538,6.76A6.537,6.537,0,0,0,107.878,55.384Zm5.091,0c0,6.423-5.221,11.157-11.629,11.157S89.708,61.807,89.708,55.384c0-6.464,5.224-11.157,11.632-11.157s11.632,4.688,11.632,11.157Zm19.572.038c0-3.928-2.724-6.8-6.188-6.8a6.768,6.768,0,0,0,0,13.522c3.467,0,6.191-2.831,6.191-6.719ZM137.015,44.9V64.932c0,8.239-5.051,11.606-11.019,11.606a11.035,11.035,0,0,1-10.275-6.576l4.431-1.775a6.39,6.39,0,0,0,5.841,3.959c3.819,0,6.186-2.27,6.186-6.54V64H132a8.022,8.022,0,0,1-6.1,2.538,11.155,11.155,0,0,1,0-22.309A8.18,8.18,0,0,1,132,46.722h.179V44.905h4.834Zm7.971-11.746H140.02v32.7h4.964Zm7.186,21.883,10.361-4.14a4.514,4.514,0,0,0-4.3-2.365A6.228,6.228,0,0,0,152.172,55.037Zm12.165,4.012,3.951,2.535a11.639,11.639,0,0,1-9.66,4.946,11.13,11.13,0,0,1-11.5-11.157,10.8,10.8,0,0,1,10.935-11.157c6.015,0,8.958,4.607,9.923,7.1l.525,1.268-15.5,6.178a5.922,5.922,0,0,0,5.619,3.38,6.671,6.671,0,0,0,5.709-3.086ZM45.825,52.476V47.742H62.4a15.216,15.216,0,0,1,.245,2.857c0,3.551-1.008,7.943-4.26,11.07-3.163,3.171-7.2,4.862-12.555,4.862-9.923,0-18.264-7.78-18.264-17.325S35.907,31.881,45.83,31.881a17.5,17.5,0,0,1,12.336,4.773L54.7,40a12.766,12.766,0,1,0-8.872,21.8,12.272,12.272,0,0,0,9.088-3.467,9.646,9.646,0,0,0,2.668-5.859Zm152.481,6.51a7.677,7.677,0,0,1-2.844,6.227,10.863,10.863,0,0,1-7.01,2.311,10.352,10.352,0,0,1-6.474-2.145,10.955,10.955,0,0,1-3.877-5.857l3.63-1.482a9.348,9.348,0,0,0,1.031,2.39,8.488,8.488,0,0,0,1.525,1.857,8.041,8.041,0,0,0,1.979,1.194,6.242,6.242,0,0,0,2.268.413,6.585,6.585,0,0,0,4.247-1.319,4.428,4.428,0,0,0,1.65-3.589,4.254,4.254,0,0,0-1.362-3.173,12.923,12.923,0,0,0-4.783-2.474,47.188,47.188,0,0,1-4.413-1.735q-4.7-2.388-4.7-7.05a7.193,7.193,0,0,1,2.6-5.566,9.492,9.492,0,0,1,6.474-2.308,9.935,9.935,0,0,1,5.854,1.732,8.115,8.115,0,0,1,3.3,4.247l-3.546,1.485a5.109,5.109,0,0,0-1.982-2.722,5.628,5.628,0,0,0-3.546-1.115,5.759,5.759,0,0,0-3.75,1.237,3.6,3.6,0,0,0-1.53,3.01,3.485,3.485,0,0,0,1.2,2.64,20.682,20.682,0,0,0,5.732,2.64q4.492,1.523,6.39,3.75A7.85,7.85,0,0,1,198.306,58.986Zm3.908-21.649h3.793v9.321l-.166,2.806h.166a6.733,6.733,0,0,1,2.64-2.474A7.742,7.742,0,0,1,212.4,46a7.359,7.359,0,0,1,5.688,2.143,8.351,8.351,0,0,1,2.02,6.02v12.7h-3.793V54.9q0-5.445-4.824-5.443a4.916,4.916,0,0,0-3.918,1.939,6.778,6.778,0,0,0-1.566,4.454V66.863h-3.793Zm31.421,30.186a9.676,9.676,0,0,1-7.341-3.053,10.775,10.775,0,0,1-2.885-7.711,10.891,10.891,0,0,1,2.8-7.668A9.246,9.246,0,0,1,233.387,46a9.124,9.124,0,0,1,7.132,2.928q2.682,2.885,2.681,8.122l-.041.413H227.283a6.583,6.583,0,0,0,1.979,4.783,6.339,6.339,0,0,0,4.535,1.816q3.631,0,5.691-3.63l3.382,1.65a10.052,10.052,0,0,1-3.793,4,10.342,10.342,0,0,1-5.443,1.444Zm-6.063-13.2h11.588a4.931,4.931,0,0,0-1.732-3.464,5.855,5.855,0,0,0-4.125-1.4,5.58,5.58,0,0,0-3.711,1.319,6.383,6.383,0,0,0-2.02,3.546Zm28.372,13.2A9.672,9.672,0,0,1,248.6,64.47a10.777,10.777,0,0,1-2.887-7.711,10.893,10.893,0,0,1,2.806-7.668A9.246,9.246,0,0,1,255.7,46a9.127,9.127,0,0,1,7.132,2.928q2.682,2.885,2.681,8.122l-.041.413H249.592a6.583,6.583,0,0,0,1.979,4.783,6.335,6.335,0,0,0,4.535,1.816q3.631,0,5.691-3.63l3.382,1.65a10.042,10.042,0,0,1-3.8,4,10.327,10.327,0,0,1-5.441,1.444Zm-6.063-13.2h11.588a4.931,4.931,0,0,0-1.732-3.464,5.855,5.855,0,0,0-4.125-1.4A5.58,5.58,0,0,0,251.9,50.78a6.369,6.369,0,0,0-2.02,3.546Zm26.493,12.864a5.847,5.847,0,0,1-4.122-1.525,5.7,5.7,0,0,1-1.65-4.247v-11.3h-3.546V46.658H270.6V40.472h3.793v6.186h4.949v3.464h-4.949v10.06a3.762,3.762,0,0,0,.786,2.762,2.585,2.585,0,0,0,1.773.7,4.325,4.325,0,0,0,.865-.082,5.955,5.955,0,0,0,.824-.288l1.2,3.38A10.189,10.189,0,0,1,276.373,67.192Zm22.444-5.938a5.479,5.479,0,0,1-2.308,4.454,9.134,9.134,0,0,1-5.816,1.816,9.3,9.3,0,0,1-5.359-1.569,8.851,8.851,0,0,1-3.3-4.206l3.38-1.441a6.46,6.46,0,0,0,2.145,2.844,5.78,5.78,0,0,0,6.142.207A2.218,2.218,0,0,0,294.94,61.5q0-1.936-2.969-2.844l-3.461-.867q-5.9-1.481-5.9-5.688a5.218,5.218,0,0,1,2.227-4.413A9.4,9.4,0,0,1,290.611,46a9.239,9.239,0,0,1,4.824,1.278,6.932,6.932,0,0,1,3.053,3.423l-3.382,1.4a4.135,4.135,0,0,0-1.9-1.979,5.638,5.638,0,0,0-2.885-.742,5,5,0,0,0-2.681.74,2.148,2.148,0,0,0-1.155,1.816q0,1.733,3.26,2.474l3.051.783q6.019,1.485,6.02,6.061Z" transform="translate(34.995 2.917)" fill="#787879"/>
  </g>
</svg>
