<svg xmlns="http://www.w3.org/2000/svg" xmlns:xlink="http://www.w3.org/1999/xlink" width="256.093" height="88.706" viewBox="0 0 256.093 88.706">
  <defs>
    <clipPath id="clip-path">
      <rect id="Rectangle_7" data-name="Rectangle 7" width="256.093" height="72.669" fill="#fff"/>
    </clipPath>
  </defs>
  <g id="Pabbly_Connect_SVG" data-name="Pabbly Connect SVG" transform="translate(-0.452 -0.361)">
    <g id="Group_32" data-name="Group 32" transform="translate(0.452 0.361)" clip-path="url(#clip-path)">
      <path id="Path_168" data-name="Path 168" d="M67.559,33.819A33.554,33.554,0,1,1,34.005.361,33.506,33.506,0,0,1,67.559,33.819Z" transform="translate(-0.452 -0.361)" fill="#20b276"/>
      <path id="Path_169" data-name="Path 169" d="M119.462,93.312a17.365,17.365,0,0,1-12.925,5.474,17.122,17.122,0,0,1-8.658-2.038l-.032,19.428-.255-.069-.158-.04-.187-.1-.088-.159-.081-.179.09-.112-8.885-10.564,0-24.971a18.267,18.267,0,0,1,5.326-13.258,18.021,18.021,0,0,1,25.85.02,19.231,19.231,0,0,1,0,26.568ZM112.685,73.7a8.568,8.568,0,0,0-12.3,0,9.173,9.173,0,0,0,0,12.649,8.566,8.566,0,0,0,12.3,0,9.174,9.174,0,0,0,0-12.649Z" transform="translate(-72.517 -50.337)" fill="#147f52"/>
      <path id="Path_170" data-name="Path 170" d="M115.586,89.472a17.879,17.879,0,0,1-21.6,3.2l0,20.24s-.655-.18-1.508-.455c-.21-.068-.423-.14-.645-.219-.106-.038-.157-.059-.266-.091-.279-.08-.633-.235-.905-.341-.916-.356-1.658-.695-1.676-.7s-2.64-1.256-2.936-1.44c-.265-.165-.5-.294-.7-.439-.065-.046-.113-.079-.175-.121-.48-.329-.749-.518-.749-.518L84.41,76.142a18.267,18.267,0,0,1,5.326-13.258,18.02,18.02,0,0,1,25.85.02,19.228,19.228,0,0,1,0,26.567Zm-6.777-19.608a8.568,8.568,0,0,0-12.3,0,9.174,9.174,0,0,0,0,12.649,8.566,8.566,0,0,0,12.3,0,9.174,9.174,0,0,0,0-12.649Z" transform="translate(-69.339 -47.186)" fill="#fff"/>
      <path id="Path_171" data-name="Path 171" d="M421.151,103.047V59.85a2.489,2.489,0,0,1,2.418-2.413h12.023a14.405,14.405,0,0,1,10.212,24.6,13.93,13.93,0,0,1-10.232,4.232h-7.231a2.121,2.121,0,0,1-2.388-2.411v19.189a2.4,2.4,0,1,1-4.8,0Zm4.8-19.187a2.107,2.107,0,0,1,2.389-2.378h7.233a9.329,9.329,0,0,0,6.818-2.817,9.636,9.636,0,0,0-6.818-16.438h-9.622Z" transform="translate(-345.631 -47.191)" fill="#3b3938"/>
      <path id="Path_172" data-name="Path 172" d="M624.195,168.865a2.135,2.135,0,0,1-2.417,2.414,2.1,2.1,0,0,1-2.385-2.411,12.04,12.04,0,0,1-15.732-1.106,11.917,11.917,0,0,1,0-16.96,12.017,12.017,0,0,1,15.732-1.123,7.244,7.244,0,0,0-7.22-7.233,7.342,7.342,0,0,0-4.19,1.453,8.077,8.077,0,0,1-2.6,1.454,2.549,2.549,0,0,1-2.484-2.488,2.685,2.685,0,0,1,.762-1.692q2.948-3.516,8.512-3.516a12.033,12.033,0,0,1,12.023,12v19.207Zm-4.8-9.592a7.244,7.244,0,1,0-2.125,5.1A6.941,6.941,0,0,0,619.392,159.273Z" transform="translate(-492.469 -113.01)" fill="#3b3938"/>
      <path id="Path_173" data-name="Path 173" d="M803.542,88.632a16.842,16.842,0,0,1-33.684.005V59.85a2.4,2.4,0,1,1,4.8,0V76.891a16.845,16.845,0,0,1,28.882,11.741Zm-4.8,0a12.091,12.091,0,1,0-3.544,8.5A11.545,11.545,0,0,0,798.739,88.632Z" transform="translate(-631.74 -47.191)" fill="#3b3938"/>
      <path id="Path_174" data-name="Path 174" d="M1018.122,88.632a16.842,16.842,0,0,1-33.684.005V59.85a2.4,2.4,0,1,1,4.8,0V76.891a16.845,16.845,0,0,1,28.882,11.741Zm-4.8,0a12.093,12.093,0,1,0-3.545,8.5A11.547,11.547,0,0,0,1013.32,88.632Z" transform="translate(-807.801 -47.191)" fill="#3b3938"/>
      <path id="Path_175" data-name="Path 175" d="M1211.042,103.048a2.133,2.133,0,0,1-2.416,2.411,9.657,9.657,0,0,1-9.606-9.618V59.85a2.4,2.4,0,1,1,4.8,0V95.845a4.86,4.86,0,0,0,4.8,4.826A2.12,2.12,0,0,1,1211.042,103.048Z" transform="translate(-983.863 -47.191)" fill="#3b3938"/>
      <path id="Path_176" data-name="Path 176" d="M1317.157,173.683a12.062,12.062,0,0,1-12.024,12,12.084,12.084,0,0,1-6-1.618,10.69,10.69,0,0,1-4.405-4.327,2.952,2.952,0,0,1-.364-1.288,2.19,2.19,0,0,1,.779-1.668,2.516,2.516,0,0,1,1.74-.71q.827,0,3,2.411a6.806,6.806,0,0,0,5.249,2.411,7.227,7.227,0,0,0,7.22-7.2v-4.822a11.727,11.727,0,0,1-7.22,2.411,12.032,12.032,0,0,1-12.024-12V140.039a2.4,2.4,0,0,1,4.8,0v19.244a7.22,7.22,0,0,0,14.44,0V140.039a2.4,2.4,0,0,1,4.8,0v33.645Z" transform="translate(-1061.063 -113.012)" fill="#3b3938"/>
    </g>
    <path id="Path_177" data-name="Path 177" d="M433.915,415.635a.883.883,0,0,1-.263.571,6.729,6.729,0,0,1-2.673,1.8,8.722,8.722,0,0,1-3.187.628,8.3,8.3,0,1,1,0-16.6,8.727,8.727,0,0,1,3.187.628,6.792,6.792,0,0,1,2.673,1.794.924.924,0,0,1,.263.582.832.832,0,0,1-.263.606.812.812,0,0,1-.594.251.915.915,0,0,1-.571-.263q-.251-.229-.777-.663a6.284,6.284,0,0,0-3.919-1.28,6.643,6.643,0,1,0,0,13.286,6.284,6.284,0,0,0,3.919-1.279q.251-.229.777-.663a.916.916,0,0,1,.571-.263.9.9,0,0,1,.857.857Z" transform="translate(-343.812 -329.573)" fill="#3b3938"/>
    <path id="Path_178" data-name="Path 178" d="M519.15,435.591a5.832,5.832,0,1,1-1.714-4.1A5.585,5.585,0,0,1,519.15,435.591Zm-1.668,0a4.174,4.174,0,1,0-1.222,2.936A3.99,3.99,0,0,0,517.482,435.591Z" transform="translate(-416.043 -352.339)" fill="#3b3938"/>
    <path id="Path_179" data-name="Path 179" d="M594.426,440.572a.828.828,0,1,1-1.657,0v-6.638a2.49,2.49,0,0,0-4.981,0v6.638a.834.834,0,0,1-1.668,0V430.61a.834.834,0,0,1,1.668,0,4.043,4.043,0,0,1,2.49-.823,4.174,4.174,0,0,1,4.147,4.147Z" transform="translate(-480.534 -352.339)" fill="#3b3938"/>
    <path id="Path_180" data-name="Path 180" d="M657.606,440.572a.828.828,0,1,1-1.656,0v-6.638a2.49,2.49,0,0,0-4.981,0v6.638a.834.834,0,0,1-1.668,0V430.61a.834.834,0,0,1,1.668,0,4.044,4.044,0,0,1,2.491-.823,4.174,4.174,0,0,1,4.147,4.147Z" transform="translate(-532.373 -352.339)" fill="#3b3938"/>
    <path id="Path_181" data-name="Path 181" d="M717.275,438.07a1.025,1.025,0,0,1-.114.434,5.226,5.226,0,0,1-2.113,2.113,5.9,5.9,0,0,1-2.925.788,5.809,5.809,0,1,1,0-11.619,5.546,5.546,0,0,1,1.793.32A7.126,7.126,0,0,1,716,431.272q1.268.994,1.268,1.874a.729.729,0,0,1-.411.674l-7.837,4.524a3.96,3.96,0,0,0,3.108,1.405,3.831,3.831,0,0,0,3.13-1.428q.149-.217.469-.64a.9.9,0,0,1,.685-.434.871.871,0,0,1,.605.24A.759.759,0,0,1,717.275,438.07Zm-2.045-5.221a4.147,4.147,0,0,0-7.254,2.742,4.306,4.306,0,0,0,.206,1.325Z" transform="translate(-579.146 -352.339)" fill="#3b3938"/>
    <path id="Path_182" data-name="Path 182" d="M785.3,432.06a.833.833,0,0,1-.263.606.813.813,0,0,1-.594.251,7.952,7.952,0,0,1-1.234-.731,4.075,4.075,0,0,0-2.274-.743,4.153,4.153,0,0,0,0,8.305,4.1,4.1,0,0,0,2.262-.731,7.34,7.34,0,0,1,1.245-.742.784.784,0,0,1,.583.263.82.82,0,0,1,.263.594.946.946,0,0,1-.251.583,4.566,4.566,0,0,1-1.874,1.245,6.047,6.047,0,0,1-2.228.446,5.809,5.809,0,1,1,0-11.619,6.051,6.051,0,0,1,2.228.446,4.659,4.659,0,0,1,1.874,1.257A.883.883,0,0,1,785.3,432.06Z" transform="translate(-635.609 -352.339)" fill="#3b3938"/>
    <path id="Path_183" data-name="Path 183" d="M847.765,417.017a1.376,1.376,0,0,1-.868,1.28,3.588,3.588,0,0,1-1.622.343,3.315,3.315,0,0,1-3.325-3.324v-6.638h-1.656a.828.828,0,1,1,0-1.657h1.656v-4.147a.834.834,0,1,1,1.668,0v4.147h1.657a.828.828,0,1,1,0,1.657h-1.657v6.638a1.625,1.625,0,0,0,.48,1.177,1.606,1.606,0,0,0,1.177.491,1.7,1.7,0,0,0,1.074-.411,1.534,1.534,0,0,1,.754-.411Q847.765,416.16,847.765,417.017Z" transform="translate(-688.396 -329.573)" fill="#3b3938"/>
    <path id="Path_184" data-name="Path 184" d="M433.915,415.635a.883.883,0,0,1-.263.571,6.729,6.729,0,0,1-2.673,1.8,8.722,8.722,0,0,1-3.187.628,8.3,8.3,0,1,1,0-16.6,8.727,8.727,0,0,1,3.187.628,6.792,6.792,0,0,1,2.673,1.794.924.924,0,0,1,.263.582.832.832,0,0,1-.263.606.812.812,0,0,1-.594.251.915.915,0,0,1-.571-.263q-.251-.229-.777-.663a6.284,6.284,0,0,0-3.919-1.28,6.643,6.643,0,1,0,0,13.286,6.284,6.284,0,0,0,3.919-1.279q.251-.229.777-.663a.916.916,0,0,1,.571-.263.9.9,0,0,1,.857.857Z" transform="translate(-343.812 -329.573)" fill="none"/>
    <path id="Path_185" data-name="Path 185" d="M519.15,435.591a5.832,5.832,0,1,1-1.714-4.1A5.585,5.585,0,0,1,519.15,435.591Zm-1.668,0a4.174,4.174,0,1,0-1.222,2.936A3.99,3.99,0,0,0,517.482,435.591Z" transform="translate(-416.043 -352.339)" fill="none"/>
    <path id="Path_186" data-name="Path 186" d="M594.426,440.572a.828.828,0,1,1-1.657,0v-6.638a2.49,2.49,0,0,0-4.981,0v6.638a.834.834,0,0,1-1.668,0V430.61a.834.834,0,0,1,1.668,0,4.043,4.043,0,0,1,2.49-.823,4.174,4.174,0,0,1,4.147,4.147Z" transform="translate(-480.534 -352.339)" fill="none"/>
    <path id="Path_187" data-name="Path 187" d="M657.606,440.572a.828.828,0,1,1-1.656,0v-6.638a2.49,2.49,0,0,0-4.981,0v6.638a.834.834,0,0,1-1.668,0V430.61a.834.834,0,0,1,1.668,0,4.044,4.044,0,0,1,2.491-.823,4.174,4.174,0,0,1,4.147,4.147Z" transform="translate(-532.373 -352.339)" fill="none"/>
    <path id="Path_188" data-name="Path 188" d="M717.275,438.07a1.025,1.025,0,0,1-.114.434,5.226,5.226,0,0,1-2.113,2.113,5.9,5.9,0,0,1-2.925.788,5.809,5.809,0,1,1,0-11.619,5.546,5.546,0,0,1,1.793.32A7.126,7.126,0,0,1,716,431.272q1.268.994,1.268,1.874a.729.729,0,0,1-.411.674l-7.837,4.524a3.96,3.96,0,0,0,3.108,1.405,3.831,3.831,0,0,0,3.13-1.428q.149-.217.469-.64a.9.9,0,0,1,.685-.434.871.871,0,0,1,.605.24A.759.759,0,0,1,717.275,438.07Zm-2.045-5.221a4.147,4.147,0,0,0-7.254,2.742,4.306,4.306,0,0,0,.206,1.325Z" transform="translate(-579.146 -352.339)" fill="none"/>
    <path id="Path_189" data-name="Path 189" d="M785.3,432.06a.833.833,0,0,1-.263.606.813.813,0,0,1-.594.251,7.952,7.952,0,0,1-1.234-.731,4.075,4.075,0,0,0-2.274-.743,4.153,4.153,0,0,0,0,8.305,4.1,4.1,0,0,0,2.262-.731,7.34,7.34,0,0,1,1.245-.742.784.784,0,0,1,.583.263.82.82,0,0,1,.263.594.946.946,0,0,1-.251.583,4.566,4.566,0,0,1-1.874,1.245,6.047,6.047,0,0,1-2.228.446,5.809,5.809,0,1,1,0-11.619,6.051,6.051,0,0,1,2.228.446,4.659,4.659,0,0,1,1.874,1.257A.883.883,0,0,1,785.3,432.06Z" transform="translate(-635.609 -352.339)" fill="none"/>
    <path id="Path_190" data-name="Path 190" d="M847.765,417.017a1.376,1.376,0,0,1-.868,1.28,3.588,3.588,0,0,1-1.622.343,3.315,3.315,0,0,1-3.325-3.324v-6.638h-1.656a.828.828,0,1,1,0-1.657h1.656v-4.147a.834.834,0,1,1,1.668,0v4.147h1.657a.828.828,0,1,1,0,1.657h-1.657v6.638a1.625,1.625,0,0,0,.48,1.177,1.606,1.606,0,0,0,1.177.491,1.7,1.7,0,0,0,1.074-.411,1.534,1.534,0,0,1,.754-.411Q847.765,416.16,847.765,417.017Z" transform="translate(-688.396 -329.573)" fill="none"/>
  </g>
</svg>
