<svg xmlns="http://www.w3.org/2000/svg" width="259.014" height="73.77" viewBox="0 0 259.014 73.77">
  <g id="shopify_logo_whitebg" transform="translate(0 -0.394)">
    <g id="Group_34" data-name="Group 34" transform="translate(0 0.394)">
      <path id="Path_191" data-name="Path 191" d="M55.636,14.229a.655.655,0,0,0-.622-.57c-.259,0-5.387-.1-5.387-.1s-4.3-4.144-4.714-4.61a1.723,1.723,0,0,0-1.554-.207s-.829.259-2.176.673a15.447,15.447,0,0,0-1.036-2.538c-1.5-2.9-3.782-4.455-6.475-4.455h0a2.125,2.125,0,0,0-.57.052c-.1-.1-.155-.207-.259-.259A5.755,5.755,0,0,0,28.336.4c-3.471.1-6.942,2.642-9.791,7.1a29.2,29.2,0,0,0-3.937,10.153c-3.989,1.243-6.786,2.124-6.89,2.124-2.02.622-2.072.673-2.331,2.59C5.284,23.812,0,64.684,0,64.684l44.343,7.667,19.219-4.766C63.51,67.585,55.688,14.591,55.636,14.229Zm-16.68-4.092q-1.554.466-3.419,1.088A19.167,19.167,0,0,0,34.5,4.9C37.143,5.318,38.438,8.323,38.956,10.136ZM33.206,11.9c-2.331.725-4.869,1.5-7.408,2.279a17.867,17.867,0,0,1,3.73-7.252,7.535,7.535,0,0,1,2.487-1.813A15.2,15.2,0,0,1,33.206,11.9ZM28.44,2.728a3.368,3.368,0,0,1,2.072.57,9.179,9.179,0,0,0-2.694,2.124,20.192,20.192,0,0,0-4.61,9.635c-2.124.673-4.2,1.3-6.061,1.865C18.39,11.276,23.1,2.884,28.44,2.728Z" transform="translate(0 -0.394)" fill="#95bf47"/>
      <g id="Group_33" data-name="Group 33" transform="translate(11.811 8.291)">
        <path id="Path_192" data-name="Path 192" d="M96.271,21.373c-.259,0-5.387-.1-5.387-.1s-4.3-4.144-4.714-4.61a.832.832,0,0,0-.57-.259V80.066L104.819,75.3S97,22.306,96.945,21.943A.753.753,0,0,0,96.271,21.373Z" transform="translate(-53.068 -16.4)" fill="#5e8e3e"/>
        <path id="Path_193" data-name="Path 193" d="M44.661,44.385l-2.228,8.34a12.412,12.412,0,0,0-5.439-.932c-4.351.259-4.351,3-4.351,3.678.259,3.73,10.05,4.559,10.62,13.313.414,6.89-3.626,11.6-9.532,11.966A14.526,14.526,0,0,1,22.8,76.969L24.3,70.6s3.937,2.953,7.045,2.746a2.748,2.748,0,0,0,2.694-2.953c-.311-4.869-8.288-4.559-8.806-12.588-.414-6.734,3.989-13.521,13.728-14.142A11.668,11.668,0,0,1,44.661,44.385Z" transform="translate(-22.8 -29.517)" fill="#fff"/>
      </g>
    </g>
    <g id="Group_35" data-name="Group 35" transform="translate(73.664 14.591)">
      <path id="s_4_" d="M158.1,67.3c-2.228-1.191-3.367-2.228-3.367-3.626,0-1.761,1.606-2.9,4.092-2.9a14.812,14.812,0,0,1,5.491,1.191l2.02-6.216s-1.865-1.45-7.356-1.45c-7.667,0-13,4.4-13,10.568,0,3.523,2.487,6.165,5.8,8.081,2.694,1.5,3.626,2.59,3.626,4.2,0,1.658-1.347,3-3.833,3a17.287,17.287,0,0,1-7.2-1.917L142.2,84.449a16.429,16.429,0,0,0,8.651,2.176c7.874,0,13.572-3.885,13.572-10.879C164.372,71.965,161.522,69.271,158.1,67.3Z" transform="translate(-142.2 -40.572)"/>
      <path id="h_4_" d="M211.811,42a11.829,11.829,0,0,0-9.273,4.662l-.1-.052L205.8,29h-8.755L188.5,73.861h8.755l2.9-15.334c1.14-5.8,4.144-9.376,6.942-9.376,1.969,0,2.746,1.347,2.746,3.264a19.729,19.729,0,0,1-.363,3.885l-3.315,17.561h8.755l3.419-18.131a34.642,34.642,0,0,0,.622-5.75C219.012,45.007,216.422,42,211.811,42Z" transform="translate(-164.515 -28.378)"/>
      <path id="o_4_" d="M269.361,54.1c-10.568,0-17.561,9.532-17.561,20.151,0,6.786,4.2,12.277,12.07,12.277,10.361,0,17.354-9.273,17.354-20.151C281.276,60.109,277.6,54.1,269.361,54.1Zm-4.3,25.746c-3,0-4.248-2.538-4.248-5.75,0-5.025,2.59-13.21,7.356-13.21,3.108,0,4.144,2.694,4.144,5.284C272.314,71.558,269.672,79.846,265.062,79.846Z" transform="translate(-195.024 -40.476)"/>
      <path id="p_4_" d="M329.2,54.1c-5.906,0-9.273,5.232-9.273,5.232h-.1l.518-4.714h-7.77c-.363,3.16-1.088,8.029-1.761,11.656L304.7,98.391h8.755l2.435-13h.207a10.268,10.268,0,0,0,5.128,1.14c10.309,0,17.043-10.568,17.043-21.239C338.268,59.384,335.626,54.1,329.2,54.1Zm-8.392,25.85a5.523,5.523,0,0,1-3.626-1.3l1.45-8.185c1.036-5.491,3.885-9.117,6.942-9.117,2.694,0,3.523,2.487,3.523,4.818C329.1,71.868,325.732,79.95,320.811,79.95Z" transform="translate(-220.52 -40.476)"/>
      <path id="dot_4_" d="M389.025,29.8A5.008,5.008,0,0,0,384,34.877a4.07,4.07,0,0,0,4.144,4.4h.1a4.935,4.935,0,0,0,5.128-5.077A4.174,4.174,0,0,0,389.025,29.8Z" transform="translate(-258.741 -28.764)"/>
      <path id="i_4_" d="M370,86.582h8.755L384.712,55.5h-8.806Z" transform="translate(-251.993 -41.151)"/>
      <path id="f_4_" d="M422.221,42.1h-6.113l.311-1.45c.518-3,2.279-5.646,5.232-5.646a8.835,8.835,0,0,1,2.8.466l1.71-6.89a11.259,11.259,0,0,0-4.766-.777,13.2,13.2,0,0,0-8.6,2.9c-3,2.538-4.4,6.216-5.077,9.946l-.259,1.45h-4.092l-1.3,6.631h4.092L401.5,73.283h8.755l4.662-24.555h6.061Z" transform="translate(-267.175 -27.8)"/>
      <path id="y_4_" d="M459.888,55.5s-5.491,13.831-7.926,21.395h-.1C451.7,74.46,449.683,55.5,449.683,55.5h-9.221l5.284,28.543a1.905,1.905,0,0,1-.207,1.45,15.37,15.37,0,0,1-4.766,5.284,20.228,20.228,0,0,1-4.973,2.487l2.435,7.46a20.178,20.178,0,0,0,8.6-4.766c3.989-3.73,7.719-9.532,11.5-17.406L469.057,55.5Z" transform="translate(-283.707 -41.151)"/>
    </g>
  </g>
</svg>
