<svg xmlns="http://www.w3.org/2000/svg" width="315.194" height="63.526" viewBox="0 0 315.194 63.526">
  <g id="woocommerce-logo-color-black" transform="translate(-15 -14.44)">
    <path id="Path_194" data-name="Path 194" d="M24.943,14.44h86.9a9.943,9.943,0,0,1,9.943,9.948V57.542a9.939,9.939,0,0,1-9.943,9.939H80.678l4.266,10.485L66.116,67.481H24.931A9.943,9.943,0,0,1,15,57.542V24.388a9.948,9.948,0,0,1,9.943-9.948Z" transform="translate(0)" fill="#7d57a4" fill-rule="evenodd"/>
    <path id="Path_195" data-name="Path 195" d="M26.748,31.423a3.6,3.6,0,0,1,2.732-1.349q3.324-.231,3.816,3.135,2.051,13.654,4.392,23.181L47.253,38.2q1.3-2.463,3.282-2.606,2.875-.2,3.593,3.66a81.4,81.4,0,0,0,4.131,14.915q1.723-16.617,5.753-24.026A3.362,3.362,0,0,1,66.9,28.212a3.837,3.837,0,0,1,2.753.862A3.362,3.362,0,0,1,70.98,31.6a3.7,3.7,0,0,1-.42,2.1q-2.555,4.741-4.2,15.764-1.626,10.641-1.2,16.646a5.308,5.308,0,0,1-.509,2.858,2.744,2.744,0,0,1-2.324,1.576,4.481,4.481,0,0,1-3.455-1.618Q52.783,62.682,49.2,50.351,45,58.757,42.9,62.926q-3.845,7.4-6.59,7.586-1.782.126-3.034-2.992-3.362-8.561-7.212-33.125a3.732,3.732,0,0,1,.685-2.971Z" transform="translate(-6.373 -7.977)" fill="#fff"/>
    <path id="Path_196" data-name="Path 196" d="M219.293,44.885a10.128,10.128,0,0,0-6.976-5.043,11.666,11.666,0,0,0-2.37-.252q-6.27,0-10.246,6.527a23.19,23.19,0,0,0-3.391,12.293,16.868,16.868,0,0,0,2.1,8.645A10.107,10.107,0,0,0,205.39,72.1a11.318,11.318,0,0,0,2.366.256q6.333,0,10.242-6.527a23.484,23.484,0,0,0,3.4-12.364A16.5,16.5,0,0,0,219.293,44.885Zm-5.505,12.108a11.554,11.554,0,0,1-3.32,6.459q-1.921,1.727-3.522,1.408t-2.568-2.824a11.271,11.271,0,0,1-.769-3.971,15.616,15.616,0,0,1,.319-3.2,14.4,14.4,0,0,1,2.3-5.186q2.177-3.2,4.547-2.685,1.6.324,2.564,2.816a11.258,11.258,0,0,1,.765,3.967A15.587,15.587,0,0,1,213.787,56.993Z" transform="translate(-105.111 -14.58)" fill="#fff"/>
    <path id="Path_197" data-name="Path 197" d="M154.213,44.885a10.128,10.128,0,0,0-6.976-5.043,11.666,11.666,0,0,0-2.37-.252q-6.274,0-10.242,6.527a23.156,23.156,0,0,0-3.4,12.293,16.868,16.868,0,0,0,2.1,8.645,10.086,10.086,0,0,0,6.98,5.043,11.318,11.318,0,0,0,2.366.256q6.338,0,10.246-6.527a23.535,23.535,0,0,0,3.425-12.364,16.5,16.5,0,0,0-2.1-8.577Zm-5.505,12.108a11.533,11.533,0,0,1-3.328,6.468q-1.925,1.727-3.522,1.408T139.3,62.036a11.271,11.271,0,0,1-.769-3.971,15.616,15.616,0,0,1,.319-3.2,14.541,14.541,0,0,1,2.3-5.186q2.169-3.19,4.547-2.677,1.6.324,2.559,2.816a11.267,11.267,0,0,1,.769,3.967,15.588,15.588,0,0,1-.319,3.2Z" transform="translate(-67.382 -14.58)" fill="#fff"/>
    <path id="Path_198" data-name="Path 198" d="M289.358,45.328A14.835,14.835,0,0,0,285,56.309q0,7.174,4.32,11.587a15.055,15.055,0,0,0,11.3,4.4,17.706,17.706,0,0,0,4.551-.71V64.533a14.432,14.432,0,0,1-3.976.668,7.073,7.073,0,0,1-5.547-2.328,9.132,9.132,0,0,1-2.076-6.325,9.072,9.072,0,0,1,2.063-6.119,6.569,6.569,0,0,1,5.194-2.4,16.05,16.05,0,0,1,4.341.63V41.575A18.664,18.664,0,0,0,300.407,41,15.052,15.052,0,0,0,289.358,45.328ZM319.65,41q-6.039,0-9.435,4.018t-3.362,11.2q0,7.792,3.362,11.919t9.775,4.131q6.2,0,9.548-4.131t3.37-11.591q0-7.476-3.4-11.507T319.65,41Zm3.459,22.694a3.883,3.883,0,0,1-3.459,1.849,3.5,3.5,0,0,1-3.194-1.849q-1.1-1.841-1.1-7.367,0-8.6,4.341-8.6,4.623,0,4.623,8.7-.013,5.4-1.215,7.266ZM354.5,41.839l-1.563,6.674q-.609,2.564-1.139,5.253l-.874,4.623q-1.261-6.922-3.417-16.537H337.356l-3.812,29.712h7.6l2.068-20.475,5.19,20.475h5.434l4.951-20.479,2.147,20.433h7.947l-4.034-29.679Zm36.361,0L389.3,48.513q-.609,2.564-1.139,5.253l-.874,4.623q-1.261-6.922-3.421-16.537H373.717l-3.824,29.683h7.6l2.063-20.475,5.194,20.475h5.43l4.967-20.45L397.3,71.518h7.947l-4.026-29.679Zm24.673,17.945h7.144V53.607h-7.144V48.143h8.212v-6.3H407.506V71.552H423.8V65.193h-8.267ZM446.409,55.1a8.1,8.1,0,0,0-2.042-10.83q-3.282-2.429-8.952-2.429H426.06V71.552h8.031V58h.13l6.489,13.532h8.481l-6.413-13.4a7.741,7.741,0,0,0,3.631-3.038Zm-12.318-.479V47.563a7.48,7.48,0,0,1,4.089.958,3.379,3.379,0,0,1,1.236,2.942q0,3.068-5.325,3.156Zm18.315-9.292a14.813,14.813,0,0,0-4.371,10.981q0,7.174,4.329,11.566a15.179,15.179,0,0,0,11.3,4.4,17.709,17.709,0,0,0,4.568-.689V64.533a14.432,14.432,0,0,1-3.976.668,7.078,7.078,0,0,1-5.552-2.328,9.177,9.177,0,0,1-2.089-6.325,9.06,9.06,0,0,1,2.068-6.119,6.569,6.569,0,0,1,5.194-2.4,16.071,16.071,0,0,1,4.354.63V41.575A18.663,18.663,0,0,0,463.455,41,15.052,15.052,0,0,0,452.406,45.328Zm26.056,19.866V59.784h7.144V53.607h-7.144V48.143h8.212v-6.3H470.431V71.552h16.294V65.193Z" transform="translate(-156.53 -15.397)"/>
  </g>
</svg>
