<svg id="zapier-logo_black" xmlns="http://www.w3.org/2000/svg" width="227.851" height="61.746" viewBox="0 0 227.851 61.746">
  <path id="Path_199" data-name="Path 199" d="M102.017,59.9l-.032-.1,20.259-18.547V32.311h-32.5v8.936h19.414l.032.086L89.127,59.9v8.937h33.445V59.9Z" transform="translate(-48.511 -17.587)" fill="#201515"/>
  <path id="Path_200" data-name="Path 200" d="M185.02,30.444a21.307,21.307,0,0,0-9.167,1.7,12.031,12.031,0,0,0-5.319,4.661,16.971,16.971,0,0,0-2.231,6.742l9.862,1.386a7.107,7.107,0,0,1,2.14-4.468,6.535,6.535,0,0,1,4.238-1.311,5.4,5.4,0,0,1,4.356,1.605,6.8,6.8,0,0,1,1.348,4.506v.974h-9.482q-7.24,0-10.4,3.211a11.537,11.537,0,0,0-3.157,8.476q0,5.394,3.157,8.027a11.911,11.911,0,0,0,7.941,2.617q5.934,0,9.129-4.083a15.177,15.177,0,0,0,2.638-5.624h.359l1.359,8.936h8.936V45.165q0-7.015-3.7-10.868T185.02,30.444Zm3.125,27.9a8.424,8.424,0,0,1-5.587,1.771q-2.858,0-3.971-1a3.268,3.268,0,0,1-1.118-2.542,3.339,3.339,0,0,1,.926-2.467,3.442,3.442,0,0,1,2.542-.926h9.327v.615a5.676,5.676,0,0,1-2.119,4.548Z" transform="translate(-91.009 -16.57)" fill="#201515"/>
  <path id="Path_201" data-name="Path 201" d="M346.719,32.311H336.161V68.838h10.558Z" transform="translate(-182.97 -17.587)" fill="#201515"/>
  <path id="Path_202" data-name="Path 202" d="M471.534,32.311a8.617,8.617,0,0,0-7.053,3.157,15.951,15.951,0,0,0-2.815,6.7h-.31l-1.38-9.862h-9.017V68.833h10.558V50.1a7.983,7.983,0,0,1,1.659-5.431q1.658-1.889,6.122-1.889h4.008V32.311Z" transform="translate(-245.454 -17.587)" fill="#201515"/>
  <path id="Path_203" data-name="Path 203" d="M394.295,32.311a17.968,17.968,0,0,0-9.327-2.194q-8.861,0-13.87,5.046t-5.009,13.913A22.173,22.173,0,0,0,368.363,59.4a16.392,16.392,0,0,0,6.475,6.823,19.641,19.641,0,0,0,9.98,2.429,20.016,20.016,0,0,0,8.359-1.541,13.438,13.438,0,0,0,5.319-4.2,18.312,18.312,0,0,0,2.89-5.972l-9.1-2.547a8.418,8.418,0,0,1-2.14,3.7q-1.541,1.541-5.164,1.541-4.307,0-6.421-2.467a9.519,9.519,0,0,1-1.948-5.084h24.91c.1-1.027.155-1.889.155-2.585V47.224a20.28,20.28,0,0,0-1.846-8.861A13.869,13.869,0,0,0,394.295,32.311Zm-9.632,6.512q6.421,0,7.283,6.32H376.8a8.692,8.692,0,0,1,1.7-3.858A7.6,7.6,0,0,1,384.663,38.823Z" transform="translate(-199.257 -16.392)" fill="#201515"/>
  <path id="Path_204" data-name="Path 204" d="M340.8,0a5.928,5.928,0,0,0-4.318,1.659,5.72,5.72,0,0,0-1.7,4.281,5.806,5.806,0,0,0,6.014,6.009,5.71,5.71,0,0,0,4.281-1.7,5.887,5.887,0,0,0,1.653-4.313A5.677,5.677,0,0,0,340.81.009Z" transform="translate(-182.222 0)" fill="#201515"/>
  <path id="Path_205" data-name="Path 205" d="M272.715,30.117a11.506,11.506,0,0,0-8.668,3.387A15.578,15.578,0,0,0,260.488,41h-.337l-1.38-9.862h-9.017v47h10.558V58.777h.386a19.734,19.734,0,0,0,1.348,3.746,10.633,10.633,0,0,0,4.2,4.7,12.34,12.34,0,0,0,6.239,1.5,11.4,11.4,0,0,0,10.1-5.164q3.467-5.164,3.467-14.41,0-8.931-3.355-13.983T272.715,30.117Zm1.07,26.467a6.53,6.53,0,0,1-5.779,2.676,6.812,6.812,0,0,1-5.661-2.585,10.994,10.994,0,0,1-2.044-7.047v-.7q0-4.543,2.044-6.956a6.947,6.947,0,0,1,5.661-2.387q4,0,5.817,2.542a12.041,12.041,0,0,1,1.814,7.09,12.674,12.674,0,0,1-1.841,7.363Z" transform="translate(-135.939 -16.392)" fill="#201515"/>
  <path id="Path_206" data-name="Path 206" d="M36.527,92.843H0v8.947H36.527Z" transform="translate(0 -50.534)" fill="#ff4f00"/>
</svg>
